<svg xmlns="http://www.w3.org/2000/svg" viewBox="0 0 1407.81 147.8"><defs><style>.cls-1{fill:#008936;}.cls-2{fill:#036928;}.cls-3{fill:#00350d;}.cls-4{fill:#002f07;}</style></defs><g id="Layer_2" data-name="Layer 2"><g id="Page_3" data-name="Page 3"><path class="cls-1" d="M287.23,32.59c2.89,0,4.75-1.79,4.75-4.92V22.09a4.4,4.4,0,0,0-4.75-4.74c-2.81,0-4.56,1.82-4.56,4.74v5.58c0,3.63,2.36,4.92,4.56,4.92"/><path class="cls-1" d="M287.23,32.59c2.89,0,4.75-1.79,4.75-4.92V22.09a4.4,4.4,0,0,0-4.75-4.74c-2.81,0-4.56,1.82-4.56,4.74v5.58c0,3.63,2.36,4.92,4.56,4.92"/><path class="cls-1" d="M1190.32,32.59c2.88,0,4.75-1.79,4.75-4.92V22.09a4.4,4.4,0,0,0-4.75-4.74c-2.77,0-4.56,1.86-4.56,4.74v5.58c0,3.63,2.36,4.92,4.56,4.92"/><path class="cls-1" d="M1190.32,32.59c2.88,0,4.75-1.79,4.75-4.92V22.09a4.4,4.4,0,0,0-4.75-4.74c-2.77,0-4.56,1.86-4.56,4.74v5.58c0,3.63,2.36,4.92,4.56,4.92"/><path class="cls-1" d="M235.13,58A36.5,36.5,0,0,0,224,50.86a34.11,34.11,0,0,0-13.17-2.6,33.67,33.67,0,0,0-16.94,4.42,37.24,37.24,0,0,0-8.32,6.53V22.28c0-3-1.79-4.93-4.66-4.93s-4.65,1.89-4.65,4.93v86.36a30.72,30.72,0,0,0,2.6,13.47A35.41,35.41,0,0,0,186.45,133a36.61,36.61,0,0,0,11.16,7.45,33.1,33.1,0,0,0,13.35,2.8,33.52,33.52,0,0,0,13.24-2.69,36.82,36.82,0,0,0,11.15-7.37A34.65,34.65,0,0,0,243,122.28a31.16,31.16,0,0,0,2.61-13.58V82.83A34.18,34.18,0,0,0,242.83,69a33.52,33.52,0,0,0-7.7-11m1.17,50.74a25.44,25.44,0,0,1-2.06,10.45,24.34,24.34,0,0,1-5.6,8,25.1,25.1,0,0,1-8.11,5A26.66,26.66,0,0,1,211,134a25.49,25.49,0,0,1-17.57-7,25.89,25.89,0,0,1-5.64-8,24,24,0,0,1-2.14-10.25v-27a24.09,24.09,0,0,1,2.3-9.75,25.84,25.84,0,0,1,5.63-7.73,25.1,25.1,0,0,1,8-5,26.3,26.3,0,0,1,27,5,24.08,24.08,0,0,1,5.68,7.94,25.26,25.26,0,0,1,2.14,10.54Z"/><path class="cls-1" d="M235.13,58A36.5,36.5,0,0,0,224,50.86a34.11,34.11,0,0,0-13.17-2.6,33.67,33.67,0,0,0-16.94,4.42,37.24,37.24,0,0,0-8.32,6.53V22.28c0-3-1.79-4.93-4.66-4.93s-4.65,1.89-4.65,4.93v86.36a30.72,30.72,0,0,0,2.6,13.47A35.41,35.41,0,0,0,186.45,133a36.61,36.61,0,0,0,11.16,7.45,33.1,33.1,0,0,0,13.35,2.8,33.52,33.52,0,0,0,13.24-2.69,36.82,36.82,0,0,0,11.15-7.37A34.65,34.65,0,0,0,243,122.28a31.16,31.16,0,0,0,2.61-13.58V82.83A34.18,34.18,0,0,0,242.83,69a33.52,33.52,0,0,0-7.7-11m1.17,50.74a25.44,25.44,0,0,1-2.06,10.45,24.34,24.34,0,0,1-5.6,8,25.1,25.1,0,0,1-8.11,5A26.66,26.66,0,0,1,211,134a25.49,25.49,0,0,1-17.57-7,25.89,25.89,0,0,1-5.64-8,24,24,0,0,1-2.14-10.25v-27a24.09,24.09,0,0,1,2.3-9.75,25.84,25.84,0,0,1,5.63-7.73,25.1,25.1,0,0,1,8-5,26.3,26.3,0,0,1,27,5,24.08,24.08,0,0,1,5.68,7.94,25.26,25.26,0,0,1,2.14,10.54Z"/><path class="cls-1" d="M287.41,49c-2.78,0-4.57,1.85-4.57,4.75V138a4.28,4.28,0,0,0,4.57,4.57c2.89,0,4.75-1.8,4.75-4.57V53.73A4.41,4.41,0,0,0,287.41,49"/><path class="cls-1" d="M287.41,49c-2.78,0-4.57,1.85-4.57,4.75V138a4.28,4.28,0,0,0,4.57,4.57c2.89,0,4.75-1.8,4.75-4.57V53.73A4.41,4.41,0,0,0,287.41,49"/><path class="cls-1" d="M386.63,58a36.28,36.28,0,0,0-11.07-7.17,33.8,33.8,0,0,0-13.13-2.6,34.44,34.44,0,0,0-13.32,2.68,35.76,35.76,0,0,0-11.19,7.39,35.36,35.36,0,0,0-7.55,11,31.06,31.06,0,0,0-2.6,13.47v25.81a30.64,30.64,0,0,0,2.61,13.47A35.4,35.4,0,0,0,337.93,133a36.58,36.58,0,0,0,11.16,7.44,33,33,0,0,0,13.34,2.8,33.52,33.52,0,0,0,13.24-2.69,36.76,36.76,0,0,0,11.15-7.37,34.48,34.48,0,0,0,7.65-10.94,30.8,30.8,0,0,0,2.62-13.58V82.83A34.14,34.14,0,0,0,394.31,69a33.47,33.47,0,0,0-7.68-11m1.15,50.74a25.44,25.44,0,0,1-2.06,10.45,24.37,24.37,0,0,1-5.61,8,25.1,25.1,0,0,1-8.11,5,26.66,26.66,0,0,1-9.57,1.75,25.5,25.5,0,0,1-9.54-1.83,25.19,25.19,0,0,1-8-5.14,26.05,26.05,0,0,1-5.64-8,24.21,24.21,0,0,1-2.14-10.25v-26a24.76,24.76,0,0,1,2.06-10.11,25.89,25.89,0,0,1,5.56-8.06,24.19,24.19,0,0,1,8-5.21,26.37,26.37,0,0,1,19.1-.08,25.85,25.85,0,0,1,8.13,5,23.8,23.8,0,0,1,5.68,7.94,25.17,25.17,0,0,1,2.15,10.54Z"/><path class="cls-1" d="M386.63,58a36.28,36.28,0,0,0-11.07-7.17,33.8,33.8,0,0,0-13.13-2.6,34.44,34.44,0,0,0-13.32,2.68,35.76,35.76,0,0,0-11.19,7.39,35.36,35.36,0,0,0-7.55,11,31.06,31.06,0,0,0-2.6,13.47v25.81a30.64,30.64,0,0,0,2.61,13.47A35.4,35.4,0,0,0,337.93,133a36.58,36.58,0,0,0,11.16,7.44,33,33,0,0,0,13.34,2.8,33.52,33.52,0,0,0,13.24-2.69,36.76,36.76,0,0,0,11.15-7.37,34.48,34.48,0,0,0,7.65-10.94,30.8,30.8,0,0,0,2.62-13.58V82.83A34.14,34.14,0,0,0,394.31,69a33.47,33.47,0,0,0-7.68-11m1.15,50.74a25.44,25.44,0,0,1-2.06,10.45,24.37,24.37,0,0,1-5.61,8,25.1,25.1,0,0,1-8.11,5,26.66,26.66,0,0,1-9.57,1.75,25.5,25.5,0,0,1-9.54-1.83,25.19,25.19,0,0,1-8-5.14,26.05,26.05,0,0,1-5.64-8,24.21,24.21,0,0,1-2.14-10.25v-26a24.76,24.76,0,0,1,2.06-10.11,25.89,25.89,0,0,1,5.56-8.06,24.19,24.19,0,0,1,8-5.21,26.37,26.37,0,0,1,19.1-.08,25.85,25.85,0,0,1,8.13,5,23.8,23.8,0,0,1,5.68,7.94,25.17,25.17,0,0,1,2.15,10.54Z"/><path class="cls-1" d="M492.64,58a36.59,36.59,0,0,0-11.07-7.17,33.84,33.84,0,0,0-13.13-2.61,34.32,34.32,0,0,0-13.33,2.69,36,36,0,0,0-11.18,7.39,35.38,35.38,0,0,0-7.55,11,31.17,31.17,0,0,0-2.6,13.49v25.8a30.57,30.57,0,0,0,2.61,13.46A35.46,35.46,0,0,0,444,133a36.85,36.85,0,0,0,11.2,7.47,33.71,33.71,0,0,0,13.37,2.77,34.34,34.34,0,0,0,16.7-4.31,36.22,36.22,0,0,0,8.56-6.48V138a4.24,4.24,0,0,0,4.48,4.57c3,0,4.83-1.75,4.83-4.57V82.84A34.15,34.15,0,0,0,500.32,69a33.62,33.62,0,0,0-7.68-11m-1.33,61.86a24.46,24.46,0,0,1-5.63,7.61,24.08,24.08,0,0,1-7.93,4.8,26.45,26.45,0,0,1-9.31,1.67,25.38,25.38,0,0,1-9.53-1.84,24.66,24.66,0,0,1-8-5.13,26.25,26.25,0,0,1-5.65-8,24.32,24.32,0,0,1-2.13-10.25v-26a24.56,24.56,0,0,1,2.06-10.11,26,26,0,0,1,5.56-8.06,24.46,24.46,0,0,1,8-5.21,26.4,26.4,0,0,1,19.11-.08,25.62,25.62,0,0,1,8.13,5,23.8,23.8,0,0,1,5.68,7.93,25.17,25.17,0,0,1,2.15,10.54v27.11a26.58,26.58,0,0,1-2.48,10"/><path class="cls-1" d="M492.64,58a36.59,36.59,0,0,0-11.07-7.17,33.84,33.84,0,0,0-13.13-2.61,34.32,34.32,0,0,0-13.33,2.69,36,36,0,0,0-11.18,7.39,35.38,35.38,0,0,0-7.55,11,31.17,31.17,0,0,0-2.6,13.49v25.8a30.57,30.57,0,0,0,2.61,13.46A35.46,35.46,0,0,0,444,133a36.85,36.85,0,0,0,11.2,7.47,33.71,33.71,0,0,0,13.37,2.77,34.34,34.34,0,0,0,16.7-4.31,36.22,36.22,0,0,0,8.56-6.48V138a4.24,4.24,0,0,0,4.48,4.57c3,0,4.83-1.75,4.83-4.57V82.84A34.15,34.15,0,0,0,500.32,69a33.62,33.62,0,0,0-7.68-11m-1.33,61.86a24.46,24.46,0,0,1-5.63,7.61,24.08,24.08,0,0,1-7.93,4.8,26.45,26.45,0,0,1-9.31,1.67,25.38,25.38,0,0,1-9.53-1.84,24.66,24.66,0,0,1-8-5.13,26.25,26.25,0,0,1-5.65-8,24.32,24.32,0,0,1-2.13-10.25v-26a24.56,24.56,0,0,1,2.06-10.11,26,26,0,0,1,5.56-8.06,24.46,24.46,0,0,1,8-5.21,26.4,26.4,0,0,1,19.11-.08,25.62,25.62,0,0,1,8.13,5,23.8,23.8,0,0,1,5.68,7.93,25.17,25.17,0,0,1,2.15,10.54v27.11a26.58,26.58,0,0,1-2.48,10"/><path class="cls-1" d="M545.08,19.51c-2.78,0-4.57,1.85-4.57,4.74V138a4.28,4.28,0,0,0,4.57,4.56c2.88,0,4.74-1.8,4.74-4.56V24.25a4.44,4.44,0,0,0-4.74-4.74"/><path class="cls-1" d="M545.08,19.51c-2.78,0-4.57,1.85-4.57,4.74V138a4.28,4.28,0,0,0,4.57,4.56c2.88,0,4.74-1.8,4.74-4.56V24.25a4.44,4.44,0,0,0-4.74-4.74"/><path class="cls-1" d="M649.11,114.38a3.9,3.9,0,0,0-3.3,1.81,16.71,16.71,0,0,0-1.09,1.88,26,26,0,0,1-4,6.46,27.69,27.69,0,0,1-12.48,8.56,22.23,22.23,0,0,1-7.18,1.24,27.13,27.13,0,0,1-10-1.82,25.41,25.41,0,0,1-13.74-12.59,19.91,19.91,0,0,1-2.11-9V58.47h46.11A4.32,4.32,0,0,0,646,53.81a4.31,4.31,0,0,0-4.56-4.65H595.28V23.89a4.08,4.08,0,0,0-1.68-3.43,4.89,4.89,0,0,0-2.88-.95,5.15,5.15,0,0,0-2.87.89A4,4,0,0,0,586,23.89v87a30,30,0,0,0,3.3,13,36.05,36.05,0,0,0,7.85,10.26,35.28,35.28,0,0,0,11,6.73,35.71,35.71,0,0,0,12.94,2.4,48.28,48.28,0,0,0,5.34-.55,33.85,33.85,0,0,0,9.07-2.88,38.87,38.87,0,0,0,9.82-6.76,33.14,33.14,0,0,0,8-12.45,4.56,4.56,0,0,0-.35-4.42,4.5,4.5,0,0,0-3.9-1.84"/><path class="cls-1" d="M649.11,114.38a3.9,3.9,0,0,0-3.3,1.81,16.71,16.71,0,0,0-1.09,1.88,26,26,0,0,1-4,6.46,27.69,27.69,0,0,1-12.48,8.56,22.23,22.23,0,0,1-7.18,1.24,27.13,27.13,0,0,1-10-1.82,25.41,25.41,0,0,1-13.74-12.59,19.91,19.91,0,0,1-2.11-9V58.47h46.11A4.32,4.32,0,0,0,646,53.81a4.31,4.31,0,0,0-4.56-4.65H595.28V23.89a4.08,4.08,0,0,0-1.68-3.43,4.89,4.89,0,0,0-2.88-.95,5.15,5.15,0,0,0-2.87.89A4,4,0,0,0,586,23.89v87a30,30,0,0,0,3.3,13,36.05,36.05,0,0,0,7.85,10.26,35.28,35.28,0,0,0,11,6.73,35.71,35.71,0,0,0,12.94,2.4,48.28,48.28,0,0,0,5.34-.55,33.85,33.85,0,0,0,9.07-2.88,38.87,38.87,0,0,0,9.82-6.76,33.14,33.14,0,0,0,8-12.45,4.56,4.56,0,0,0-.35-4.42,4.5,4.5,0,0,0-3.9-1.84"/><path class="cls-1" d="M743.84,57.88a34.47,34.47,0,0,0-10.46-7,32,32,0,0,0-12.94-2.62A36.74,36.74,0,0,0,707,50.84a39.85,39.85,0,0,0-11.63,6.95,34.66,34.66,0,0,0-8.16,10.46,28.74,28.74,0,0,0-3.12,13.14v28.75a31.86,31.86,0,0,0,10.25,23.57,36,36,0,0,0,11.49,7,40.69,40.69,0,0,0,14.63,2.57,29,29,0,0,0,9.26-1.55,36.93,36.93,0,0,0,8.52-4.21,40.14,40.14,0,0,0,7.23-6.19,33.65,33.65,0,0,0,5.3-7.65,8,8,0,0,0,1-2.65,4.66,4.66,0,0,0-1.17-3.85,5.41,5.41,0,0,0-3.49-1.45h-.4a4,4,0,0,0-3.61,2,34.26,34.26,0,0,1-10,11.91,21.16,21.16,0,0,1-12.7,4.33,30.38,30.38,0,0,1-10.88-1.92,27.17,27.17,0,0,1-8.64-5.23,23.6,23.6,0,0,1-5.57-7.62,22,22,0,0,1-2-9.06v-9.62H749c2.78,0,4.57-1.87,4.57-4.75V81.39a32.79,32.79,0,0,0-9.75-23.51m.43,33.32H693.39V81.39a18.59,18.59,0,0,1,2.26-8.92,26.58,26.58,0,0,1,6.14-7.72,30.39,30.39,0,0,1,8.69-5.27,27.28,27.28,0,0,1,10-1.91,22.16,22.16,0,0,1,9,1.88A25.12,25.12,0,0,1,737,64.64a26.2,26.2,0,0,1,5.29,7.7,21.74,21.74,0,0,1,2,9Z"/><path class="cls-1" d="M743.84,57.88a34.47,34.47,0,0,0-10.46-7,32,32,0,0,0-12.94-2.62A36.74,36.74,0,0,0,707,50.84a39.85,39.85,0,0,0-11.63,6.95,34.66,34.66,0,0,0-8.16,10.46,28.74,28.74,0,0,0-3.12,13.14v28.75a31.86,31.86,0,0,0,10.25,23.57,36,36,0,0,0,11.49,7,40.69,40.69,0,0,0,14.63,2.57,29,29,0,0,0,9.26-1.55,36.93,36.93,0,0,0,8.52-4.21,40.14,40.14,0,0,0,7.23-6.19,33.65,33.65,0,0,0,5.3-7.65,8,8,0,0,0,1-2.65,4.66,4.66,0,0,0-1.17-3.85,5.41,5.41,0,0,0-3.49-1.45h-.4a4,4,0,0,0-3.61,2,34.26,34.26,0,0,1-10,11.91,21.16,21.16,0,0,1-12.7,4.33,30.38,30.38,0,0,1-10.88-1.92,27.17,27.17,0,0,1-8.64-5.23,23.6,23.6,0,0,1-5.57-7.62,22,22,0,0,1-2-9.06v-9.62H749c2.78,0,4.57-1.87,4.57-4.75V81.39a32.79,32.79,0,0,0-9.75-23.51m.43,33.32H693.39V81.39a18.59,18.59,0,0,1,2.26-8.92,26.58,26.58,0,0,1,6.14-7.72,30.39,30.39,0,0,1,8.69-5.27,27.28,27.28,0,0,1,10-1.91,22.16,22.16,0,0,1,9,1.88A25.12,25.12,0,0,1,737,64.64a26.2,26.2,0,0,1,5.29,7.7,21.74,21.74,0,0,1,2,9Z"/><path class="cls-1" d="M836.86,50.28a38.81,38.81,0,0,0-11.3-2,34.38,34.38,0,0,0-17.07,4.43,33.79,33.79,0,0,0-8.36,6.5V53.73A4.41,4.41,0,0,0,795.38,49c-2.82,0-4.57,1.81-4.57,4.75V138c0,2.82,1.81,4.57,4.75,4.57a4.28,4.28,0,0,0,4.57-4.57V81.83a24,24,0,0,1,2.29-9.71,25.15,25.15,0,0,1,13.64-12.73,25.44,25.44,0,0,1,9.33-1.83,38.73,38.73,0,0,1,8,1.35,10.81,10.81,0,0,1,5,3,4.84,4.84,0,0,0,3.47,1.55,4.26,4.26,0,0,0,3.11-1.2,4.59,4.59,0,0,0,1.27-2.89,5.13,5.13,0,0,0-1.42-3.8,21,21,0,0,0-7.93-5.33"/><path class="cls-1" d="M836.86,50.28a38.81,38.81,0,0,0-11.3-2,34.38,34.38,0,0,0-17.07,4.43,33.79,33.79,0,0,0-8.36,6.5V53.73A4.41,4.41,0,0,0,795.38,49c-2.82,0-4.57,1.81-4.57,4.75V138c0,2.82,1.81,4.57,4.75,4.57a4.28,4.28,0,0,0,4.57-4.57V81.83a24,24,0,0,1,2.29-9.71,25.15,25.15,0,0,1,13.64-12.73,25.44,25.44,0,0,1,9.33-1.83,38.73,38.73,0,0,1,8,1.35,10.81,10.81,0,0,1,5,3,4.84,4.84,0,0,0,3.47,1.55,4.26,4.26,0,0,0,3.11-1.2,4.59,4.59,0,0,0,1.27-2.89,5.13,5.13,0,0,0-1.42-3.8,21,21,0,0,0-7.93-5.33"/><path class="cls-1" d="M932.22,58a35.21,35.21,0,0,0-11-7.18A34,34,0,0,0,908,48.26a34.87,34.87,0,0,0-13.25,2.59A35.52,35.52,0,0,0,883.67,58a33.93,33.93,0,0,0-10.39,24.79V138a4.29,4.29,0,0,0,4.58,4.57c2.53,0,4.29-1.5,4.74-4.38V82.83a24.27,24.27,0,0,1,2.06-10,25.92,25.92,0,0,1,5.54-8,25.16,25.16,0,0,1,8.08-5.27A25.53,25.53,0,0,1,908,57.57a24,24,0,0,1,9.29,1.9,28.66,28.66,0,0,1,8.25,5.25,24.34,24.34,0,0,1,7.9,18.11V138a4.29,4.29,0,0,0,4.57,4.57c2.92,0,4.74-1.75,4.74-4.57V82.83A33.06,33.06,0,0,0,939.89,69,35.1,35.1,0,0,0,932.22,58"/><path class="cls-1" d="M932.22,58a35.21,35.21,0,0,0-11-7.18A34,34,0,0,0,908,48.26a34.87,34.87,0,0,0-13.25,2.59A35.52,35.52,0,0,0,883.67,58a33.93,33.93,0,0,0-10.39,24.79V138a4.29,4.29,0,0,0,4.58,4.57c2.53,0,4.29-1.5,4.74-4.38V82.83a24.27,24.27,0,0,1,2.06-10,25.92,25.92,0,0,1,5.54-8,25.16,25.16,0,0,1,8.08-5.27A25.53,25.53,0,0,1,908,57.57a24,24,0,0,1,9.29,1.9,28.66,28.66,0,0,1,8.25,5.25,24.34,24.34,0,0,1,7.9,18.11V138a4.29,4.29,0,0,0,4.57,4.57c2.92,0,4.74-1.75,4.74-4.57V82.83A33.06,33.06,0,0,0,939.89,69,35.1,35.1,0,0,0,932.22,58"/><path class="cls-1" d="M1039.06,58A36.35,36.35,0,0,0,1028,50.86a33.84,33.84,0,0,0-13.13-2.61,34.36,34.36,0,0,0-13.33,2.69,35.89,35.89,0,0,0-11.18,7.39,35.15,35.15,0,0,0-7.55,11,31,31,0,0,0-2.6,13.49v25.8a30.51,30.51,0,0,0,2.62,13.47A35.19,35.19,0,0,0,990.39,133a36.76,36.76,0,0,0,11.18,7.47,33.79,33.79,0,0,0,13.38,2.77,34.4,34.4,0,0,0,16.7-4.31,36,36,0,0,0,8.56-6.48V138a4.24,4.24,0,0,0,4.48,4.57c3,0,4.83-1.75,4.83-4.57V82.84A34.35,34.35,0,0,0,1046.74,69a33.47,33.47,0,0,0-7.68-11m-1.33,61.86a24.63,24.63,0,0,1-5.62,7.61,24.18,24.18,0,0,1-7.93,4.8,26.54,26.54,0,0,1-9.32,1.67,25.42,25.42,0,0,1-9.53-1.84,24.66,24.66,0,0,1-8-5.13,26.42,26.42,0,0,1-5.65-8,24.32,24.32,0,0,1-2.13-10.25v-26a24.63,24.63,0,0,1,2.06-10.11,25.72,25.72,0,0,1,5.56-8.06,24.36,24.36,0,0,1,8-5.21,26.43,26.43,0,0,1,19.12-.08,25.58,25.58,0,0,1,8.12,5,23.82,23.82,0,0,1,5.69,7.93,25.35,25.35,0,0,1,2.14,10.54v27.11a26.72,26.72,0,0,1-2.48,10"/><path class="cls-1" d="M1039.06,58A36.35,36.35,0,0,0,1028,50.86a33.84,33.84,0,0,0-13.13-2.61,34.36,34.36,0,0,0-13.33,2.69,35.89,35.89,0,0,0-11.18,7.39,35.15,35.15,0,0,0-7.55,11,31,31,0,0,0-2.6,13.49v25.8a30.51,30.51,0,0,0,2.62,13.47A35.19,35.19,0,0,0,990.39,133a36.76,36.76,0,0,0,11.18,7.47,33.79,33.79,0,0,0,13.38,2.77,34.4,34.4,0,0,0,16.7-4.31,36,36,0,0,0,8.56-6.48V138a4.24,4.24,0,0,0,4.48,4.57c3,0,4.83-1.75,4.83-4.57V82.84A34.35,34.35,0,0,0,1046.74,69a33.47,33.47,0,0,0-7.68-11m-1.33,61.86a24.63,24.63,0,0,1-5.62,7.61,24.18,24.18,0,0,1-7.93,4.8,26.54,26.54,0,0,1-9.32,1.67,25.42,25.42,0,0,1-9.53-1.84,24.66,24.66,0,0,1-8-5.13,26.42,26.42,0,0,1-5.65-8,24.32,24.32,0,0,1-2.13-10.25v-26a24.63,24.63,0,0,1,2.06-10.11,25.72,25.72,0,0,1,5.56-8.06,24.36,24.36,0,0,1,8-5.21,26.43,26.43,0,0,1,19.12-.08,25.58,25.58,0,0,1,8.12,5,23.82,23.82,0,0,1,5.69,7.93,25.35,25.35,0,0,1,2.14,10.54v27.11a26.72,26.72,0,0,1-2.48,10"/><path class="cls-1" d="M1150.07,114.38a3.88,3.88,0,0,0-3.3,1.82,16,16,0,0,0-1.09,1.87,26.28,26.28,0,0,1-4,6.46,28.72,28.72,0,0,1-5.65,5.16,28,28,0,0,1-6.84,3.4,22.13,22.13,0,0,1-7.17,1.24,27.18,27.18,0,0,1-10-1.82,25.94,25.94,0,0,1-8.11-5,26.52,26.52,0,0,1-5.63-7.55,20.07,20.07,0,0,1-2.11-9V58.47h46.11a4.33,4.33,0,0,0,4.58-4.66,4.32,4.32,0,0,0-4.58-4.65h-46.11V23.89a4.08,4.08,0,0,0-1.67-3.43,5,5,0,0,0-2.88-.95,5.21,5.21,0,0,0-2.88.89,4,4,0,0,0-1.87,3.49v87a29.87,29.87,0,0,0,3.31,13,35.52,35.52,0,0,0,7.85,10.26,35.08,35.08,0,0,0,11,6.73,35.71,35.71,0,0,0,12.94,2.4,48.28,48.28,0,0,0,5.34-.55,33.74,33.74,0,0,0,9.07-2.88,39.27,39.27,0,0,0,9.83-6.76,33.33,33.33,0,0,0,8-12.45,4.62,4.62,0,0,0-.35-4.42,4.52,4.52,0,0,0-3.9-1.84"/><path class="cls-1" d="M1150.07,114.38a3.88,3.88,0,0,0-3.3,1.82,16,16,0,0,0-1.09,1.87,26.28,26.28,0,0,1-4,6.46,28.72,28.72,0,0,1-5.65,5.16,28,28,0,0,1-6.84,3.4,22.13,22.13,0,0,1-7.17,1.24,27.18,27.18,0,0,1-10-1.82,25.94,25.94,0,0,1-8.11-5,26.52,26.52,0,0,1-5.63-7.55,20.07,20.07,0,0,1-2.11-9V58.47h46.11a4.33,4.33,0,0,0,4.58-4.66,4.32,4.32,0,0,0-4.58-4.65h-46.11V23.89a4.08,4.08,0,0,0-1.67-3.43,5,5,0,0,0-2.88-.95,5.21,5.21,0,0,0-2.88.89,4,4,0,0,0-1.87,3.49v87a29.87,29.87,0,0,0,3.31,13,35.52,35.52,0,0,0,7.85,10.26,35.08,35.08,0,0,0,11,6.73,35.71,35.71,0,0,0,12.94,2.4,48.28,48.28,0,0,0,5.34-.55,33.74,33.74,0,0,0,9.07-2.88,39.27,39.27,0,0,0,9.83-6.76,33.33,33.33,0,0,0,8-12.45,4.62,4.62,0,0,0-.35-4.42,4.52,4.52,0,0,0-3.9-1.84"/><path class="cls-1" d="M1190.5,49c-2.81,0-4.56,1.82-4.56,4.75V138a4.28,4.28,0,0,0,4.56,4.57c2.88,0,4.75-1.8,4.75-4.57V53.73A4.41,4.41,0,0,0,1190.5,49"/><path class="cls-1" d="M1190.5,49c-2.81,0-4.56,1.82-4.56,4.75V138a4.28,4.28,0,0,0,4.56,4.57c2.88,0,4.75-1.8,4.75-4.57V53.73A4.41,4.41,0,0,0,1190.5,49"/><path class="cls-1" d="M1309,49.11a4.69,4.69,0,0,0-1.59-.29c-1.06,0-3,.43-4.26,3.3l-32.81,75.76-32.81-75.75c-1.24-2.88-3.22-3.31-4.28-3.31a4.75,4.75,0,0,0-1.49.25,4.45,4.45,0,0,0-2.83,2.24,4.88,4.88,0,0,0,0,4l36.88,85.29a4.79,4.79,0,0,0,4.53,2.67,4.54,4.54,0,0,0,4.56-2.78l36.89-85.31a4.92,4.92,0,0,0,0-3.89,4.41,4.41,0,0,0-2.74-2.19"/><path class="cls-1" d="M1309,49.11a4.69,4.69,0,0,0-1.59-.29c-1.06,0-3,.43-4.26,3.3l-32.81,75.76-32.81-75.75c-1.24-2.88-3.22-3.31-4.28-3.31a4.75,4.75,0,0,0-1.49.25,4.45,4.45,0,0,0-2.83,2.24,4.88,4.88,0,0,0,0,4l36.88,85.29a4.79,4.79,0,0,0,4.53,2.67,4.54,4.54,0,0,0,4.56-2.78l36.89-85.31a4.92,4.92,0,0,0,0-3.89,4.41,4.41,0,0,0-2.74-2.19"/><path class="cls-1" d="M1397.35,58a36.47,36.47,0,0,0-11.07-7.17,33.81,33.81,0,0,0-13.13-2.61,34.27,34.27,0,0,0-13.32,2.69,35.76,35.76,0,0,0-11.19,7.39,35.15,35.15,0,0,0-7.55,11,31.2,31.2,0,0,0-2.6,13.49v25.8a30.41,30.41,0,0,0,2.62,13.46,35.12,35.12,0,0,0,7.57,10.93,36.88,36.88,0,0,0,11.18,7.47,33.79,33.79,0,0,0,13.38,2.77A34.47,34.47,0,0,0,1390,139a36,36,0,0,0,8.55-6.48V138a4.24,4.24,0,0,0,4.49,4.57c3,0,4.82-1.75,4.82-4.57V82.84A34.19,34.19,0,0,0,1405,69a33.47,33.47,0,0,0-7.68-11M1396,119.89a24.47,24.47,0,0,1-5.62,7.61,24.12,24.12,0,0,1-7.94,4.8,26.41,26.41,0,0,1-9.31,1.67,25.46,25.46,0,0,1-9.53-1.84,24.87,24.87,0,0,1-8-5.13,26.3,26.3,0,0,1-5.64-8,24.21,24.21,0,0,1-2.15-10.25v-26a24.64,24.64,0,0,1,2.07-10.11,26.2,26.2,0,0,1,5.55-8.06,24.5,24.5,0,0,1,8-5.21,26.4,26.4,0,0,1,19.11-.08,25.4,25.4,0,0,1,8.13,5,23.82,23.82,0,0,1,5.69,7.93,25.32,25.32,0,0,1,2.14,10.54v27.11a26.72,26.72,0,0,1-2.48,10"/><path class="cls-1" d="M1397.35,58a36.47,36.47,0,0,0-11.07-7.17,33.81,33.81,0,0,0-13.13-2.61,34.27,34.27,0,0,0-13.32,2.69,35.76,35.76,0,0,0-11.19,7.39,35.15,35.15,0,0,0-7.55,11,31.2,31.2,0,0,0-2.6,13.49v25.8a30.41,30.41,0,0,0,2.62,13.46,35.12,35.12,0,0,0,7.57,10.93,36.88,36.88,0,0,0,11.18,7.47,33.79,33.79,0,0,0,13.38,2.77A34.47,34.47,0,0,0,1390,139a36,36,0,0,0,8.55-6.48V138a4.24,4.24,0,0,0,4.49,4.57c3,0,4.82-1.75,4.82-4.57V82.84A34.19,34.19,0,0,0,1405,69a33.47,33.47,0,0,0-7.68-11M1396,119.89a24.47,24.47,0,0,1-5.62,7.61,24.12,24.12,0,0,1-7.94,4.8,26.41,26.41,0,0,1-9.31,1.67,25.46,25.46,0,0,1-9.53-1.84,24.87,24.87,0,0,1-8-5.13,26.3,26.3,0,0,1-5.64-8,24.21,24.21,0,0,1-2.15-10.25v-26a24.64,24.64,0,0,1,2.07-10.11,26.2,26.2,0,0,1,5.55-8.06,24.5,24.5,0,0,1,8-5.21,26.4,26.4,0,0,1,19.11-.08,25.4,25.4,0,0,1,8.13,5,23.82,23.82,0,0,1,5.69,7.93,25.32,25.32,0,0,1,2.14,10.54v27.11a26.72,26.72,0,0,1-2.48,10"/><path class="cls-2" d="M77.72,145.25c-2.49-.49-6.58-.33-12-.33-6.72,0-13.14.59-14.68.59-.78,0-1,0-.46-.58,2.06-2,8.8-14.39,10.16-18.7a21.29,21.29,0,0,0,.54-9.62s0,0,0,0,0,.06.07.08a63.41,63.41,0,0,0,15.29,14h0c1.26,3.67,2.55,11.54,3.08,13.49.41,1.47-1.2,1.2-2,1"/><path class="cls-3" d="M77.58,131.24A73,73,0,0,1,68.65,128c-4.31-2-7.42-3.6-7.42-3.6a24.1,24.1,0,0,0,.31-6s15.64,12.68,16,12.92"/><path class="cls-1" d="M141.31,55.09C132.09,44.64,119.58,39,105.15,38.65h-1.23a59.86,59.86,0,0,0-6.24.33,50.65,50.65,0,0,0-.58-5.29A43.15,43.15,0,0,0,86.62,12.19C79.33,4.21,69.5,0,58.2,0A39.08,39.08,0,0,0,21.39,26.92a35.89,35.89,0,0,0,.33,23.45A35.25,35.25,0,0,1,33,48.45,42.49,42.49,0,0,1,39.6,49a20.24,20.24,0,0,1-2.2-16.89A22.11,22.11,0,0,1,58.2,16.82c6.55,0,11.93,2.26,16,6.72a26.34,26.34,0,0,1,6.29,12.9A41.42,41.42,0,0,1,80.61,48l-1.8,11.38a1.57,1.57,0,0,0,1.54,1.81,1.6,1.6,0,0,0,.53-.09l10.86-3.87a40.88,40.88,0,0,1,12.09-1.78c7,0,17,1.87,24.87,10.78,9.44,10.69,11.61,23.64,6,35.52-5.52,11.6-17.6,19.39-30.06,19.39q-.61,0-1.23,0c-8.87-.36-16.71-2.88-22.67-7.28C74.14,109,70.13,102,68.77,93,66.94,80.94,63,71.6,57.05,65.27a30.63,30.63,0,0,0-7.8-6L49,59.05a34,34,0,0,0-16-3.56,32.07,32.07,0,0,0-11.09,2,35.42,35.42,0,0,0-6.69,3.34,34.45,34.45,0,0,0-4.33,3.28A31.54,31.54,0,0,0,0,88a34.43,34.43,0,0,0,10.24,24c6.1,5.86,14.25,9,23.6,9,.56,0,1.13,0,1.69,0A31.64,31.64,0,0,0,52,115.55a52.88,52.88,0,0,1-6.29-16.5,16.87,16.87,0,0,1-12.12,5.21,15.42,15.42,0,0,1-11.34-4.71A15.19,15.19,0,0,1,17.57,88a15.42,15.42,0,0,1,4.75-11.11,15.67,15.67,0,0,1,10.9-4.63c5.36,0,14.13,2,17.37,15.93h0a63.12,63.12,0,0,1,1.55,7.38,48.39,48.39,0,0,0,12,25.93c9.13,9.85,22.71,15.79,38.5,16.43.66,0,1.32,0,2,0A49,49,0,0,0,131,130.19,51.24,51.24,0,0,0,149.84,109c8.56-18,5.37-38.12-8.53-53.87"/><path class="cls-4" d="M0,145.26l152.15-2.54a2.54,2.54,0,1,1,.08,5.08h-.08Z"/></g></g></svg>